<svg width="680" height="520" viewBox="0 0 680 520" role="img" xmlns="http://www.w3.org/2000/svg">
  <title>synlynk — synapse graph terminal icon</title>
  <defs>
    <radialGradient id="bg4" cx="50%" cy="50%" r="50%">
      <stop offset="0%" stop-color="#0f1420"/>
      <stop offset="100%" stop-color="#080a0f"/>
    </radialGradient>
    <filter id="fb4" x="-80%" y="-80%" width="260%" height="260%">
      <feGaussianBlur stdDeviation="5"/>
    </filter>
    <filter id="fm4" x="-60%" y="-60%" width="220%" height="220%">
      <feGaussianBlur stdDeviation="3"/>
    </filter>
    <filter id="fs4" x="-40%" y="-40%" width="180%" height="180%">
      <feGaussianBlur stdDeviation="1.5"/>
    </filter>
    <filter id="fhub4" x="-120%" y="-120%" width="340%" height="340%">
      <feGaussianBlur stdDeviation="9"/>
    </filter>
    <radialGradient id="hubglow4" cx="50%" cy="50%" r="50%">
      <stop offset="0%" stop-color="#ffffff" stop-opacity="0.18"/>
      <stop offset="100%" stop-color="#ffffff" stop-opacity="0"/>
    </radialGradient>
    <radialGradient id="bglow4" cx="50%" cy="50%" r="50%">
      <stop offset="0%" stop-color="#5b8def" stop-opacity="0.55"/>
      <stop offset="100%" stop-color="#5b8def" stop-opacity="0"/>
    </radialGradient>
    <radialGradient id="pglow4" cx="50%" cy="50%" r="50%">
      <stop offset="0%" stop-color="#a259f7" stop-opacity="0.55"/>
      <stop offset="100%" stop-color="#a259f7" stop-opacity="0"/>
    </radialGradient>
    <radialGradient id="tglow4" cx="50%" cy="50%" r="50%">
      <stop offset="0%" stop-color="#2ec4a0" stop-opacity="0.55"/>
      <stop offset="100%" stop-color="#2ec4a0" stop-opacity="0"/>
    </radialGradient>
    <clipPath id="tile-clip4">
      <rect x="140" y="20" width="400" height="400" rx="64"/>
    </clipPath>
  </defs>

  <rect width="680" height="520" fill="#f8f8f8"/>
  <rect x="140" y="20" width="400" height="400" rx="64" fill="url(#bg4)"/>
  <rect x="140" y="20" width="400" height="52" rx="64" fill="#1C1C1E"/>
  <rect x="140" y="52" width="400" height="20" fill="#1C1C1E"/>
  <circle cx="196" cy="46" r="7" fill="#FF5F57"/>
  <circle cx="218" cy="46" r="7" fill="#FEBC2E"/>
  <circle cx="240" cy="46" r="7" fill="#28C840"/>

  <g clip-path="url(#tile-clip4)">
    <ellipse cx="260" cy="170" rx="90" ry="80" fill="url(#bglow4)" filter="url(#fb4)" opacity="0.6"/>
    <ellipse cx="450" cy="165" rx="85" ry="78" fill="url(#pglow4)" filter="url(#fb4)" opacity="0.6"/>
    <ellipse cx="340" cy="370" rx="95" ry="70" fill="url(#tglow4)" filter="url(#fb4)" opacity="0.6"/>

    <g filter="url(#fm4)" opacity="0.5">
      <line x1="232" y1="148" x2="340" y2="250" stroke="#5b8def" stroke-width="3"/>
      <line x1="208" y1="192" x2="340" y2="250" stroke="#5b8def" stroke-width="2.5"/>
      <line x1="255" y1="120" x2="340" y2="250" stroke="#5b8def" stroke-width="2"/>
      <line x1="195" y1="155" x2="340" y2="250" stroke="#5b8def" stroke-width="2"/>
      <line x1="270" y1="200" x2="340" y2="250" stroke="#5b8def" stroke-width="2"/>
      <line x1="432" y1="148" x2="340" y2="250" stroke="#a259f7" stroke-width="3"/>
      <line x1="458" y1="190" x2="340" y2="250" stroke="#a259f7" stroke-width="2.5"/>
      <line x1="414" y1="120" x2="340" y2="250" stroke="#a259f7" stroke-width="2"/>
      <line x1="472" y1="155" x2="340" y2="250" stroke="#a259f7" stroke-width="2"/>
      <line x1="408" y1="205" x2="340" y2="250" stroke="#a259f7" stroke-width="2"/>
      <line x1="298" y1="358" x2="340" y2="250" stroke="#2ec4a0" stroke-width="3"/>
      <line x1="378" y1="362" x2="340" y2="250" stroke="#2ec4a0" stroke-width="3"/>
      <line x1="340" y1="392" x2="340" y2="250" stroke="#2ec4a0" stroke-width="2"/>
      <line x1="268" y1="330" x2="340" y2="250" stroke="#2ec4a0" stroke-width="2"/>
      <line x1="408" y1="330" x2="340" y2="250" stroke="#2ec4a0" stroke-width="2"/>
      <line x1="232" y1="148" x2="255" y2="120" stroke="#5b8def" stroke-width="1.5"/>
      <line x1="232" y1="148" x2="208" y2="192" stroke="#5b8def" stroke-width="1.5"/>
      <line x1="195" y1="155" x2="208" y2="192" stroke="#5b8def" stroke-width="1.2"/>
      <line x1="432" y1="148" x2="414" y2="120" stroke="#a259f7" stroke-width="1.5"/>
      <line x1="432" y1="148" x2="458" y2="190" stroke="#a259f7" stroke-width="1.5"/>
      <line x1="472" y1="155" x2="458" y2="190" stroke="#a259f7" stroke-width="1.2"/>
      <line x1="298" y1="358" x2="340" y2="392" stroke="#2ec4a0" stroke-width="1.5"/>
      <line x1="378" y1="362" x2="340" y2="392" stroke="#2ec4a0" stroke-width="1.5"/>
      <line x1="298" y1="358" x2="268" y2="330" stroke="#2ec4a0" stroke-width="1.2"/>
      <line x1="378" y1="362" x2="408" y2="330" stroke="#2ec4a0" stroke-width="1.2"/>
    </g>

    <g opacity="0.85">
      <line x1="232" y1="148" x2="340" y2="250" stroke="#5b8def" stroke-width="1.2"/>
      <line x1="208" y1="192" x2="340" y2="250" stroke="#5b8def" stroke-width="1.0"/>
      <line x1="255" y1="120" x2="340" y2="250" stroke="#5b8def" stroke-width="0.9"/>
      <line x1="195" y1="155" x2="340" y2="250" stroke="#5b8def" stroke-width="0.9"/>
      <line x1="270" y1="200" x2="340" y2="250" stroke="#5b8def" stroke-width="0.8"/>
      <line x1="432" y1="148" x2="340" y2="250" stroke="#a259f7" stroke-width="1.2"/>
      <line x1="458" y1="190" x2="340" y2="250" stroke="#a259f7" stroke-width="1.0"/>
      <line x1="414" y1="120" x2="340" y2="250" stroke="#a259f7" stroke-width="0.9"/>
      <line x1="472" y1="155" x2="340" y2="250" stroke="#a259f7" stroke-width="0.9"/>
      <line x1="408" y1="205" x2="340" y2="250" stroke="#a259f7" stroke-width="0.8"/>
      <line x1="298" y1="358" x2="340" y2="250" stroke="#2ec4a0" stroke-width="1.2"/>
      <line x1="378" y1="362" x2="340" y2="250" stroke="#2ec4a0" stroke-width="1.2"/>
      <line x1="340" y1="392" x2="340" y2="250" stroke="#2ec4a0" stroke-width="0.9"/>
      <line x1="268" y1="330" x2="340" y2="250" stroke="#2ec4a0" stroke-width="0.9"/>
      <line x1="408" y1="330" x2="340" y2="250" stroke="#2ec4a0" stroke-width="0.9"/>
    </g>

    <!-- nodes -->
    <circle cx="232" cy="148" r="7" fill="#5b8def" filter="url(#fs4)" opacity="0.9"/>
    <circle cx="232" cy="148" r="4" fill="#5b8def"/>
    <circle cx="208" cy="192" r="6" fill="#5b8def" filter="url(#fs4)" opacity="0.8"/>
    <circle cx="208" cy="192" r="3.5" fill="#5b8def"/>
    <circle cx="255" cy="120" r="6" fill="#5b8def" filter="url(#fs4)" opacity="0.75"/>
    <circle cx="255" cy="120" r="3.5" fill="#5b8def"/>
    <circle cx="195" cy="155" r="5" fill="#5b8def" filter="url(#fs4)" opacity="0.65"/>
    <circle cx="195" cy="155" r="3" fill="#5b8def" opacity="0.85"/>
    <circle cx="270" cy="200" r="5" fill="#5b8def" filter="url(#fs4)" opacity="0.6"/>
    <circle cx="270" cy="200" r="3" fill="#5b8def" opacity="0.8"/>
    <circle cx="432" cy="148" r="7" fill="#a259f7" filter="url(#fs4)" opacity="0.9"/>
    <circle cx="432" cy="148" r="4" fill="#a259f7"/>
    <circle cx="458" cy="190" r="6" fill="#a259f7" filter="url(#fs4)" opacity="0.8"/>
    <circle cx="458" cy="190" r="3.5" fill="#a259f7"/>
    <circle cx="414" cy="120" r="6" fill="#a259f7" filter="url(#fs4)" opacity="0.75"/>
    <circle cx="414" cy="120" r="3.5" fill="#a259f7"/>
    <circle cx="472" cy="155" r="5" fill="#a259f7" filter="url(#fs4)" opacity="0.65"/>
    <circle cx="472" cy="155" r="3" fill="#a259f7" opacity="0.85"/>
    <circle cx="408" cy="205" r="5" fill="#a259f7" filter="url(#fs4)" opacity="0.6"/>
    <circle cx="408" cy="205" r="3" fill="#a259f7" opacity="0.8"/>
    <circle cx="298" cy="358" r="7" fill="#2ec4a0" filter="url(#fs4)" opacity="0.9"/>
    <circle cx="298" cy="358" r="4" fill="#2ec4a0"/>
    <circle cx="378" cy="362" r="7" fill="#2ec4a0" filter="url(#fs4)" opacity="0.9"/>
    <circle cx="378" cy="362" r="4" fill="#2ec4a0"/>
    <circle cx="340" cy="392" r="6" fill="#2ec4a0" filter="url(#fs4)" opacity="0.75"/>
    <circle cx="340" cy="392" r="3.5" fill="#2ec4a0"/>
    <circle cx="268" cy="330" r="5.5" fill="#2ec4a0" filter="url(#fs4)" opacity="0.7"/>
    <circle cx="268" cy="330" r="3" fill="#2ec4a0" opacity="0.85"/>
    <circle cx="408" cy="330" r="5.5" fill="#2ec4a0" filter="url(#fs4)" opacity="0.7"/>
    <circle cx="408" cy="330" r="3" fill="#2ec4a0" opacity="0.85"/>

    <!-- hub -->
    <circle cx="340" cy="250" r="38" fill="url(#hubglow4)" filter="url(#fhub4)"/>
    <circle cx="340" cy="250" r="20" fill="#0a0c14" stroke="#ffffff" stroke-width="0.5" stroke-opacity="0.2"/>
    <path d="M340,250 L340,232 A18,18 0 0,1 355.6,259 Z" fill="#5b8def"/>
    <path d="M340,250 L355.6,259 A18,18 0 0,1 324.4,259 Z" fill="#2ec4a0"/>
    <path d="M340,250 L324.4,259 A18,18 0 0,1 340,232 Z" fill="#a259f7"/>
    <circle cx="340" cy="250" r="18" fill="none" stroke="#ffffff" stroke-width="0.6" stroke-opacity="0.25"/>
    <circle cx="340" cy="250" r="5.5" fill="#080a0f"/>
    <circle cx="340" cy="250" r="3" fill="#ffffff" opacity="0.9"/>

    <text x="196" y="390" font-family="'Courier New', monospace" font-size="10" fill="#2ec4a0" opacity="0.6">&#9654;</text>
    <rect x="208" y="379" width="2" height="13" rx="1" fill="#a259f7" opacity="0.7"/>
  </g>

  <rect x="140" y="20" width="400" height="400" rx="64" fill="none" stroke="#ffffff" stroke-width="0.5" stroke-opacity="0.08"/>

  <text x="340" y="462" text-anchor="middle" font-family="'Courier New', monospace" font-weight="500" font-size="42" fill="#1a1a1a" letter-spacing="-1">syn<tspan fill="#5b8def">l</tspan><tspan fill="#a259f7">y</tspan><tspan fill="#2ec4a0">n</tspan><tspan fill="#1a1a1a">k</tspan></text>
  <text x="340" y="486" text-anchor="middle" font-family="Arial, sans-serif" font-size="11" fill="#aaa" letter-spacing="2.5">synaptic link for ai dev</text>
</svg>
