<svg width="680" height="520" viewBox="0 0 680 520" role="img" xmlns="http://www.w3.org/2000/svg">
  <title>synlynk — aurora halo icon mark</title>
  <defs>
    <radialGradient id="bg5" cx="50%" cy="50%" r="50%">
      <stop offset="0%" stop-color="#0f1420"/>
      <stop offset="100%" stop-color="#080a0f"/>
    </radialGradient>
    <radialGradient id="aur-b5" cx="50%" cy="50%" r="50%">
      <stop offset="0%" stop-color="#5b8def" stop-opacity="0.0"/>
      <stop offset="30%" stop-color="#5b8def" stop-opacity="0.55"/>
      <stop offset="65%" stop-color="#7ba8f7" stop-opacity="0.22"/>
      <stop offset="100%" stop-color="#5b8def" stop-opacity="0.0"/>
    </radialGradient>
    <radialGradient id="aur-p5" cx="50%" cy="50%" r="50%">
      <stop offset="0%" stop-color="#a259f7" stop-opacity="0.0"/>
      <stop offset="30%" stop-color="#a259f7" stop-opacity="0.55"/>
      <stop offset="65%" stop-color="#c07fff" stop-opacity="0.22"/>
      <stop offset="100%" stop-color="#a259f7" stop-opacity="0.0"/>
    </radialGradient>
    <radialGradient id="aur-t5" cx="50%" cy="50%" r="50%">
      <stop offset="0%" stop-color="#2ec4a0" stop-opacity="0.0"/>
      <stop offset="30%" stop-color="#2ec4a0" stop-opacity="0.55"/>
      <stop offset="65%" stop-color="#5de0c4" stop-opacity="0.22"/>
      <stop offset="100%" stop-color="#2ec4a0" stop-opacity="0.0"/>
    </radialGradient>
    <radialGradient id="aur-mix5" cx="50%" cy="50%" r="50%">
      <stop offset="0%" stop-color="#ffffff" stop-opacity="0.18"/>
      <stop offset="40%" stop-color="#a0b8ff" stop-opacity="0.08"/>
      <stop offset="100%" stop-color="#ffffff" stop-opacity="0.0"/>
    </radialGradient>
    <radialGradient id="hubglow5" cx="50%" cy="50%" r="50%">
      <stop offset="0%" stop-color="#ffffff" stop-opacity="0.22"/>
      <stop offset="100%" stop-color="#ffffff" stop-opacity="0"/>
    </radialGradient>
    <radialGradient id="bglow5" cx="50%" cy="50%" r="50%">
      <stop offset="0%" stop-color="#5b8def" stop-opacity="0.55"/>
      <stop offset="100%" stop-color="#5b8def" stop-opacity="0"/>
    </radialGradient>
    <radialGradient id="pglow5" cx="50%" cy="50%" r="50%">
      <stop offset="0%" stop-color="#a259f7" stop-opacity="0.55"/>
      <stop offset="100%" stop-color="#a259f7" stop-opacity="0"/>
    </radialGradient>
    <radialGradient id="tglow5" cx="50%" cy="50%" r="50%">
      <stop offset="0%" stop-color="#2ec4a0" stop-opacity="0.55"/>
      <stop offset="100%" stop-color="#2ec4a0" stop-opacity="0"/>
    </radialGradient>
    <filter id="fb5" x="-80%" y="-80%" width="260%" height="260%"><feGaussianBlur stdDeviation="5"/></filter>
    <filter id="fm5" x="-60%" y="-60%" width="220%" height="220%"><feGaussianBlur stdDeviation="3"/></filter>
    <filter id="fs5" x="-40%" y="-40%" width="180%" height="180%"><feGaussianBlur stdDeviation="1.5"/></filter>
    <filter id="fhub5" x="-120%" y="-120%" width="340%" height="340%"><feGaussianBlur stdDeviation="9"/></filter>
    <filter id="faur5" x="-100%" y="-100%" width="300%" height="300%"><feGaussianBlur stdDeviation="11"/></filter>
    <filter id="faur25" x="-80%" y="-80%" width="260%" height="260%"><feGaussianBlur stdDeviation="6"/></filter>
    <clipPath id="tile-clip5"><rect x="140" y="20" width="400" height="400" rx="64"/></clipPath>
  </defs>

  <rect width="680" height="520" fill="#f8f8f8"/>
  <rect x="140" y="20" width="400" height="400" rx="64" fill="url(#bg5)"/>
  <rect x="140" y="20" width="400" height="52" rx="64" fill="#141418"/>
  <rect x="140" y="52" width="400" height="20" fill="#141418"/>
  <circle cx="196" cy="46" r="7" fill="#FF5F57"/>
  <circle cx="218" cy="46" r="7" fill="#FEBC2E"/>
  <circle cx="240" cy="46" r="7" fill="#28C840"/>

  <g clip-path="url(#tile-clip5)">
    <ellipse cx="260" cy="170" rx="90" ry="80" fill="url(#bglow5)" filter="url(#fb5)" opacity="0.6"/>
    <ellipse cx="450" cy="165" rx="85" ry="78" fill="url(#pglow5)" filter="url(#fb5)" opacity="0.6"/>
    <ellipse cx="340" cy="370" rx="95" ry="70" fill="url(#tglow5)" filter="url(#fb5)" opacity="0.6"/>

    <!-- Aurora petals -->
    <ellipse cx="340" cy="250" rx="72" ry="42" fill="url(#aur-b5)" filter="url(#faur5)" opacity="0.75" transform="rotate(-42 340 250)"/>
    <ellipse cx="340" cy="250" rx="72" ry="42" fill="url(#aur-p5)" filter="url(#faur5)" opacity="0.75" transform="rotate(78 340 250)"/>
    <ellipse cx="340" cy="250" rx="72" ry="40" fill="url(#aur-t5)" filter="url(#faur5)" opacity="0.75" transform="rotate(198 340 250)"/>
    <ellipse cx="340" cy="250" rx="52" ry="28" fill="url(#aur-b5)" filter="url(#faur25)" opacity="0.85" transform="rotate(-38 340 250)"/>
    <ellipse cx="340" cy="250" rx="52" ry="28" fill="url(#aur-p5)" filter="url(#faur25)" opacity="0.85" transform="rotate(82 340 250)"/>
    <ellipse cx="340" cy="250" rx="52" ry="28" fill="url(#aur-t5)" filter="url(#faur25)" opacity="0.85" transform="rotate(202 340 250)"/>
    <ellipse cx="340" cy="250" rx="58" ry="32" fill="url(#aur-b5)" filter="url(#faur25)" opacity="0.4" transform="rotate(18 340 250)"/>
    <ellipse cx="340" cy="250" rx="58" ry="32" fill="url(#aur-p5)" filter="url(#faur25)" opacity="0.4" transform="rotate(138 340 250)"/>
    <ellipse cx="340" cy="250" rx="58" ry="32" fill="url(#aur-t5)" filter="url(#faur25)" opacity="0.4" transform="rotate(258 340 250)"/>
    <circle cx="340" cy="250" r="46" fill="url(#aur-mix5)" filter="url(#faur25)" opacity="0.9"/>

    <!-- Rim arcs -->
    <path d="M340,250 m-50,0 a50,50 0 0,1 43.3,-25" fill="none" stroke="#5b8def" stroke-width="2" stroke-linecap="round" opacity="0.7" filter="url(#fs5)"/>
    <path d="M340,250 m43.3,-25 a50,50 0 0,1 0,50" fill="none" stroke="#a259f7" stroke-width="2" stroke-linecap="round" opacity="0.7" filter="url(#fs5)"/>
    <path d="M340,250 m43.3,25 a50,50 0 0,1 -86.6,0" fill="none" stroke="#2ec4a0" stroke-width="2.5" stroke-linecap="round" opacity="0.7" filter="url(#fs5)"/>

    <!-- Edges glow -->
    <g filter="url(#fm5)" opacity="0.5">
      <line x1="232" y1="148" x2="340" y2="250" stroke="#5b8def" stroke-width="3"/>
      <line x1="208" y1="192" x2="340" y2="250" stroke="#5b8def" stroke-width="2.5"/>
      <line x1="255" y1="120" x2="340" y2="250" stroke="#5b8def" stroke-width="2"/>
      <line x1="195" y1="155" x2="340" y2="250" stroke="#5b8def" stroke-width="2"/>
      <line x1="432" y1="148" x2="340" y2="250" stroke="#a259f7" stroke-width="3"/>
      <line x1="458" y1="190" x2="340" y2="250" stroke="#a259f7" stroke-width="2.5"/>
      <line x1="414" y1="120" x2="340" y2="250" stroke="#a259f7" stroke-width="2"/>
      <line x1="298" y1="358" x2="340" y2="250" stroke="#2ec4a0" stroke-width="3"/>
      <line x1="378" y1="362" x2="340" y2="250" stroke="#2ec4a0" stroke-width="3"/>
      <line x1="340" y1="392" x2="340" y2="250" stroke="#2ec4a0" stroke-width="2"/>
    </g>
    <!-- Edges crisp -->
    <g opacity="0.85">
      <line x1="232" y1="148" x2="340" y2="250" stroke="#5b8def" stroke-width="1.2"/>
      <line x1="208" y1="192" x2="340" y2="250" stroke="#5b8def" stroke-width="1.0"/>
      <line x1="255" y1="120" x2="340" y2="250" stroke="#5b8def" stroke-width="0.9"/>
      <line x1="195" y1="155" x2="340" y2="250" stroke="#5b8def" stroke-width="0.9"/>
      <line x1="432" y1="148" x2="340" y2="250" stroke="#a259f7" stroke-width="1.2"/>
      <line x1="458" y1="190" x2="340" y2="250" stroke="#a259f7" stroke-width="1.0"/>
      <line x1="414" y1="120" x2="340" y2="250" stroke="#a259f7" stroke-width="0.9"/>
      <line x1="298" y1="358" x2="340" y2="250" stroke="#2ec4a0" stroke-width="1.2"/>
      <line x1="378" y1="362" x2="340" y2="250" stroke="#2ec4a0" stroke-width="1.2"/>
      <line x1="340" y1="392" x2="340" y2="250" stroke="#2ec4a0" stroke-width="0.9"/>
    </g>

    <!-- Pulse trails -->
    <line x1="232" y1="148" x2="304" y2="212" stroke="#5b8def" stroke-width="2.5" stroke-linecap="round" opacity="0.9" filter="url(#fs5)"/>
    <line x1="232" y1="148" x2="304" y2="212" stroke="#ffffff" stroke-width="0.8" stroke-linecap="round" opacity="0.7"/>
    <line x1="340" y1="250" x2="365" y2="318" stroke="#2ec4a0" stroke-width="2.5" stroke-linecap="round" opacity="0.9" filter="url(#fs5)"/>
    <line x1="340" y1="250" x2="365" y2="318" stroke="#ffffff" stroke-width="0.8" stroke-linecap="round" opacity="0.7"/>
    <line x1="432" y1="148" x2="385" y2="200" stroke="#a259f7" stroke-width="2.5" stroke-linecap="round" opacity="0.9" filter="url(#fs5)"/>
    <line x1="432" y1="148" x2="385" y2="200" stroke="#ffffff" stroke-width="0.8" stroke-linecap="round" opacity="0.6"/>

    <!-- Pulse dots -->
    <circle cx="304" cy="212" r="5" fill="#5b8def" filter="url(#fs5)" opacity="0.8"/>
    <circle cx="304" cy="212" r="2.5" fill="#ffffff" opacity="0.95"/>
    <circle cx="365" cy="318" r="5" fill="#2ec4a0" filter="url(#fs5)" opacity="0.8"/>
    <circle cx="365" cy="318" r="2.5" fill="#ffffff" opacity="0.95"/>
    <circle cx="385" cy="200" r="4" fill="#a259f7" filter="url(#fs5)" opacity="0.8"/>
    <circle cx="385" cy="200" r="2" fill="#ffffff" opacity="0.9"/>

    <!-- Nodes -->
    <circle cx="232" cy="148" r="7" fill="#5b8def" filter="url(#fs5)" opacity="0.9"/>
    <circle cx="232" cy="148" r="4" fill="#5b8def"/>
    <circle cx="208" cy="192" r="6" fill="#5b8def" filter="url(#fs5)" opacity="0.8"/>
    <circle cx="208" cy="192" r="3.5" fill="#5b8def"/>
    <circle cx="255" cy="120" r="6" fill="#5b8def" filter="url(#fs5)" opacity="0.75"/>
    <circle cx="255" cy="120" r="3.5" fill="#5b8def"/>
    <circle cx="195" cy="155" r="5" fill="#5b8def" filter="url(#fs5)" opacity="0.65"/>
    <circle cx="195" cy="155" r="3" fill="#5b8def" opacity="0.85"/>
    <circle cx="432" cy="148" r="7" fill="#a259f7" filter="url(#fs5)" opacity="0.9"/>
    <circle cx="432" cy="148" r="4" fill="#a259f7"/>
    <circle cx="458" cy="190" r="6" fill="#a259f7" filter="url(#fs5)" opacity="0.8"/>
    <circle cx="458" cy="190" r="3.5" fill="#a259f7"/>
    <circle cx="414" cy="120" r="6" fill="#a259f7" filter="url(#fs5)" opacity="0.75"/>
    <circle cx="414" cy="120" r="3.5" fill="#a259f7"/>
    <circle cx="298" cy="358" r="7" fill="#2ec4a0" filter="url(#fs5)" opacity="0.9"/>
    <circle cx="298" cy="358" r="4" fill="#2ec4a0"/>
    <circle cx="378" cy="362" r="7" fill="#2ec4a0" filter="url(#fs5)" opacity="0.9"/>
    <circle cx="378" cy="362" r="4" fill="#2ec4a0"/>
    <circle cx="340" cy="392" r="6" fill="#2ec4a0" filter="url(#fs5)" opacity="0.75"/>
    <circle cx="340" cy="392" r="3.5" fill="#2ec4a0"/>

    <!-- Hub -->
    <circle cx="340" cy="250" r="52" fill="url(#hubglow5)" filter="url(#fhub5)" opacity="0.6"/>
    <circle cx="340" cy="250" r="20" fill="#0a0c14" stroke="#ffffff" stroke-width="0.5" stroke-opacity="0.2"/>
    <path d="M340,250 L340,232 A18,18 0 0,1 355.6,259 Z" fill="#5b8def"/>
    <path d="M340,250 L355.6,259 A18,18 0 0,1 324.4,259 Z" fill="#2ec4a0"/>
    <path d="M340,250 L324.4,259 A18,18 0 0,1 340,232 Z" fill="#a259f7"/>
    <circle cx="340" cy="250" r="18" fill="none" stroke="#ffffff" stroke-width="0.7" stroke-opacity="0.28"/>
    <circle cx="340" cy="250" r="24" fill="none" stroke="#ffffff" stroke-width="0.4" stroke-opacity="0.1"/>
    <circle cx="340" cy="250" r="5.5" fill="#080a0f"/>
    <circle cx="340" cy="250" r="3" fill="#ffffff" opacity="0.9"/>
  </g>

  <rect x="140" y="20" width="400" height="400" rx="64" fill="none" stroke="#ffffff" stroke-width="0.5" stroke-opacity="0.08"/>
  <text x="340" y="462" text-anchor="middle" font-family="'Courier New', monospace" font-weight="500" font-size="42" fill="#1a1a1a" letter-spacing="-1">syn<tspan fill="#5b8def">l</tspan><tspan fill="#a259f7">y</tspan><tspan fill="#2ec4a0">n</tspan><tspan fill="#1a1a1a">k</tspan></text>
  <text x="340" y="486" text-anchor="middle" font-family="Arial, sans-serif" font-size="11" fill="#aaa" letter-spacing="2.5">synaptic link for ai dev</text>
</svg>
