<svg width="680" height="520" viewBox="0 0 680 520" role="img" xmlns="http://www.w3.org/2000/svg">
  <title>synlynk — final icon mark, expanded aurora halo</title>
  <defs>
    <radialGradient id="bg6" cx="50%" cy="50%" r="50%">
      <stop offset="0%" stop-color="#0f1420"/>
      <stop offset="100%" stop-color="#080a0f"/>
    </radialGradient>
    <radialGradient id="aur-b6" cx="50%" cy="50%" r="50%">
      <stop offset="0%" stop-color="#5b8def" stop-opacity="0.0"/>
      <stop offset="28%" stop-color="#5b8def" stop-opacity="0.62"/>
      <stop offset="62%" stop-color="#7ba8f7" stop-opacity="0.25"/>
      <stop offset="100%" stop-color="#5b8def" stop-opacity="0.0"/>
    </radialGradient>
    <radialGradient id="aur-p6" cx="50%" cy="50%" r="50%">
      <stop offset="0%" stop-color="#a259f7" stop-opacity="0.0"/>
      <stop offset="28%" stop-color="#a259f7" stop-opacity="0.62"/>
      <stop offset="62%" stop-color="#c07fff" stop-opacity="0.25"/>
      <stop offset="100%" stop-color="#a259f7" stop-opacity="0.0"/>
    </radialGradient>
    <radialGradient id="aur-t6" cx="50%" cy="50%" r="50%">
      <stop offset="0%" stop-color="#2ec4a0" stop-opacity="0.0"/>
      <stop offset="28%" stop-color="#2ec4a0" stop-opacity="0.62"/>
      <stop offset="62%" stop-color="#5de0c4" stop-opacity="0.25"/>
      <stop offset="100%" stop-color="#2ec4a0" stop-opacity="0.0"/>
    </radialGradient>
    <radialGradient id="aur-mix6" cx="50%" cy="50%" r="50%">
      <stop offset="0%" stop-color="#ffffff" stop-opacity="0.2"/>
      <stop offset="45%" stop-color="#a0b8ff" stop-opacity="0.07"/>
      <stop offset="100%" stop-color="#ffffff" stop-opacity="0.0"/>
    </radialGradient>
    <radialGradient id="hubglow6" cx="50%" cy="50%" r="50%">
      <stop offset="0%" stop-color="#ffffff" stop-opacity="0.22"/>
      <stop offset="100%" stop-color="#ffffff" stop-opacity="0"/>
    </radialGradient>
    <filter id="fb6" x="-80%" y="-80%" width="260%" height="260%"><feGaussianBlur stdDeviation="5"/></filter>
    <filter id="fs6" x="-40%" y="-40%" width="180%" height="180%"><feGaussianBlur stdDeviation="1.5"/></filter>
    <filter id="fhub6" x="-120%" y="-120%" width="340%" height="340%"><feGaussianBlur stdDeviation="9"/></filter>
    <filter id="faur6" x="-100%" y="-100%" width="300%" height="300%"><feGaussianBlur stdDeviation="16"/></filter>
    <filter id="faur26" x="-80%" y="-80%" width="260%" height="260%"><feGaussianBlur stdDeviation="9"/></filter>
    <filter id="fedge6" x="-60%" y="-60%" width="220%" height="220%"><feGaussianBlur stdDeviation="3.5"/></filter>
    <clipPath id="tile-clip6"><rect x="140" y="20" width="400" height="400" rx="64"/></clipPath>
    <clipPath id="halo-clip6"><circle cx="340" cy="250" r="150"/></clipPath>
  </defs>

  <rect width="680" height="520" fill="#f8f8f8"/>
  <rect x="140" y="20" width="400" height="400" rx="64" fill="url(#bg6)"/>
  <rect x="140" y="20" width="400" height="52" rx="64" fill="#141418"/>
  <rect x="140" y="52" width="400" height="20" fill="#141418"/>
  <circle cx="196" cy="46" r="7" fill="#FF5F57"/>
  <circle cx="218" cy="46" r="7" fill="#FEBC2E"/>
  <circle cx="240" cy="46" r="7" fill="#28C840"/>

  <g clip-path="url(#tile-clip6)">

    <!-- Aurora halo — 150px radius -->
    <ellipse cx="340" cy="250" rx="148" ry="88" fill="url(#aur-b6)" filter="url(#faur6)" opacity="0.72" transform="rotate(-42 340 250)"/>
    <ellipse cx="340" cy="250" rx="148" ry="88" fill="url(#aur-p6)" filter="url(#faur6)" opacity="0.72" transform="rotate(78 340 250)"/>
    <ellipse cx="340" cy="250" rx="148" ry="82" fill="url(#aur-t6)" filter="url(#faur6)" opacity="0.72" transform="rotate(198 340 250)"/>
    <ellipse cx="340" cy="250" rx="110" ry="60" fill="url(#aur-b6)" filter="url(#faur26)" opacity="0.82" transform="rotate(-38 340 250)"/>
    <ellipse cx="340" cy="250" rx="110" ry="60" fill="url(#aur-p6)" filter="url(#faur26)" opacity="0.82" transform="rotate(82 340 250)"/>
    <ellipse cx="340" cy="250" rx="110" ry="58" fill="url(#aur-t6)" filter="url(#faur26)" opacity="0.82" transform="rotate(202 340 250)"/>
    <ellipse cx="340" cy="250" rx="120" ry="65" fill="url(#aur-b6)" filter="url(#faur26)" opacity="0.35" transform="rotate(18 340 250)"/>
    <ellipse cx="340" cy="250" rx="120" ry="65" fill="url(#aur-p6)" filter="url(#faur26)" opacity="0.35" transform="rotate(138 340 250)"/>
    <ellipse cx="340" cy="250" rx="120" ry="65" fill="url(#aur-t6)" filter="url(#faur26)" opacity="0.35" transform="rotate(258 340 250)"/>
    <circle cx="340" cy="250" r="95" fill="url(#aur-mix6)" filter="url(#faur26)" opacity="0.85"/>

    <!-- Halo rim arcs -->
    <path d="M 210.2 175 A 150 150 0 0 1 470 175" fill="none" stroke="#5b8def" stroke-width="1.8" stroke-linecap="round" opacity="0.55" filter="url(#fs6)"/>
    <path d="M 470 175 A 150 150 0 0 1 470 325" fill="none" stroke="#a259f7" stroke-width="1.8" stroke-linecap="round" opacity="0.55" filter="url(#fs6)"/>
    <path d="M 470 325 A 150 150 0 0 1 210.2 325" fill="none" stroke="#2ec4a0" stroke-width="2" stroke-linecap="round" opacity="0.55" filter="url(#fs6)"/>
    <path d="M 210.2 325 A 150 150 0 0 1 210.2 175" fill="none" stroke="#5b8def" stroke-width="1.5" stroke-linecap="round" opacity="0.4" filter="url(#fs6)"/>

    <!-- Edges glow — clipped to halo -->
    <g filter="url(#fedge6)" opacity="0.55" clip-path="url(#halo-clip6)">
      <line x1="225" y1="170" x2="340" y2="250" stroke="#5b8def" stroke-width="3"/>
      <line x1="260" y1="136" x2="340" y2="250" stroke="#5b8def" stroke-width="2.5"/>
      <line x1="304" y1="115" x2="340" y2="250" stroke="#5b8def" stroke-width="2"/>
      <line x1="208" y1="202" x2="340" y2="250" stroke="#5b8def" stroke-width="2"/>
      <line x1="359" y1="111" x2="340" y2="250" stroke="#5b8def" stroke-width="2"/>
      <line x1="455" y1="170" x2="340" y2="250" stroke="#a259f7" stroke-width="3"/>
      <line x1="420" y1="136" x2="340" y2="250" stroke="#a259f7" stroke-width="2.5"/>
      <line x1="376" y1="115" x2="340" y2="250" stroke="#a259f7" stroke-width="2"/>
      <line x1="475" y1="214" x2="340" y2="250" stroke="#a259f7" stroke-width="2"/>
      <line x1="472" y1="298" x2="340" y2="250" stroke="#a259f7" stroke-width="2"/>
      <line x1="376" y1="385" x2="340" y2="250" stroke="#2ec4a0" stroke-width="3"/>
      <line x1="316" y1="388" x2="340" y2="250" stroke="#2ec4a0" stroke-width="2.5"/>
      <line x1="270" y1="371" x2="340" y2="250" stroke="#2ec4a0" stroke-width="2"/>
      <line x1="420" y1="365" x2="340" y2="250" stroke="#2ec4a0" stroke-width="2"/>
      <line x1="233" y1="340" x2="340" y2="250" stroke="#2ec4a0" stroke-width="2"/>
      <line x1="225" y1="170" x2="260" y2="136" stroke="#5b8def" stroke-width="1.5"/>
      <line x1="260" y1="136" x2="304" y2="115" stroke="#5b8def" stroke-width="1.2"/>
      <line x1="304" y1="115" x2="359" y2="111" stroke="#5b8def" stroke-width="1"/>
      <line x1="225" y1="170" x2="208" y2="202" stroke="#5b8def" stroke-width="1.2"/>
      <line x1="455" y1="170" x2="420" y2="136" stroke="#a259f7" stroke-width="1.5"/>
      <line x1="420" y1="136" x2="376" y2="115" stroke="#a259f7" stroke-width="1.2"/>
      <line x1="376" y1="115" x2="359" y2="111" stroke="#a259f7" stroke-width="1"/>
      <line x1="455" y1="170" x2="475" y2="214" stroke="#a259f7" stroke-width="1.2"/>
      <line x1="475" y1="214" x2="472" y2="298" stroke="#a259f7" stroke-width="1"/>
      <line x1="376" y1="385" x2="316" y2="388" stroke="#2ec4a0" stroke-width="1.5"/>
      <line x1="316" y1="388" x2="270" y2="371" stroke="#2ec4a0" stroke-width="1.2"/>
      <line x1="270" y1="371" x2="233" y2="340" stroke="#2ec4a0" stroke-width="1"/>
      <line x1="376" y1="385" x2="420" y2="365" stroke="#2ec4a0" stroke-width="1.2"/>
    </g>

    <!-- Edges crisp — clipped to halo -->
    <g opacity="0.8" clip-path="url(#halo-clip6)">
      <line x1="225" y1="170" x2="340" y2="250" stroke="#5b8def" stroke-width="1.1"/>
      <line x1="260" y1="136" x2="340" y2="250" stroke="#5b8def" stroke-width="1.0"/>
      <line x1="304" y1="115" x2="340" y2="250" stroke="#5b8def" stroke-width="0.9"/>
      <line x1="208" y1="202" x2="340" y2="250" stroke="#5b8def" stroke-width="0.9"/>
      <line x1="359" y1="111" x2="340" y2="250" stroke="#5b8def" stroke-width="0.8"/>
      <line x1="455" y1="170" x2="340" y2="250" stroke="#a259f7" stroke-width="1.1"/>
      <line x1="420" y1="136" x2="340" y2="250" stroke="#a259f7" stroke-width="1.0"/>
      <line x1="376" y1="115" x2="340" y2="250" stroke="#a259f7" stroke-width="0.9"/>
      <line x1="475" y1="214" x2="340" y2="250" stroke="#a259f7" stroke-width="0.9"/>
      <line x1="472" y1="298" x2="340" y2="250" stroke="#a259f7" stroke-width="0.8"/>
      <line x1="376" y1="385" x2="340" y2="250" stroke="#2ec4a0" stroke-width="1.1"/>
      <line x1="316" y1="388" x2="340" y2="250" stroke="#2ec4a0" stroke-width="1.0"/>
      <line x1="270" y1="371" x2="340" y2="250" stroke="#2ec4a0" stroke-width="0.9"/>
      <line x1="420" y1="365" x2="340" y2="250" stroke="#2ec4a0" stroke-width="0.9"/>
      <line x1="233" y1="340" x2="340" y2="250" stroke="#2ec4a0" stroke-width="0.8"/>
      <line x1="225" y1="170" x2="260" y2="136" stroke="#5b8def" stroke-width="0.7" opacity="0.55"/>
      <line x1="260" y1="136" x2="304" y2="115" stroke="#5b8def" stroke-width="0.6" opacity="0.5"/>
      <line x1="304" y1="115" x2="359" y2="111" stroke="#5b8def" stroke-width="0.5" opacity="0.4"/>
      <line x1="225" y1="170" x2="208" y2="202" stroke="#5b8def" stroke-width="0.6" opacity="0.5"/>
      <line x1="455" y1="170" x2="420" y2="136" stroke="#a259f7" stroke-width="0.7" opacity="0.55"/>
      <line x1="420" y1="136" x2="376" y2="115" stroke="#a259f7" stroke-width="0.6" opacity="0.5"/>
      <line x1="376" y1="115" x2="359" y2="111" stroke="#a259f7" stroke-width="0.5" opacity="0.4"/>
      <line x1="455" y1="170" x2="475" y2="214" stroke="#a259f7" stroke-width="0.6" opacity="0.5"/>
      <line x1="475" y1="214" x2="472" y2="298" stroke="#a259f7" stroke-width="0.5" opacity="0.4"/>
      <line x1="376" y1="385" x2="316" y2="388" stroke="#2ec4a0" stroke-width="0.7" opacity="0.55"/>
      <line x1="316" y1="388" x2="270" y2="371" stroke="#2ec4a0" stroke-width="0.6" opacity="0.5"/>
      <line x1="270" y1="371" x2="233" y2="340" stroke="#2ec4a0" stroke-width="0.5" opacity="0.4"/>
      <line x1="376" y1="385" x2="420" y2="365" stroke="#2ec4a0" stroke-width="0.6" opacity="0.5"/>
    </g>

    <!-- Pulse trails -->
    <line x1="225" y1="170" x2="306" y2="218" stroke="#5b8def" stroke-width="2.5" stroke-linecap="round" opacity="0.9" filter="url(#fs6)"/>
    <line x1="225" y1="170" x2="306" y2="218" stroke="#ffffff" stroke-width="0.8" stroke-linecap="round" opacity="0.7"/>
    <line x1="340" y1="250" x2="362" y2="325" stroke="#2ec4a0" stroke-width="2.5" stroke-linecap="round" opacity="0.9" filter="url(#fs6)"/>
    <line x1="340" y1="250" x2="362" y2="325" stroke="#ffffff" stroke-width="0.8" stroke-linecap="round" opacity="0.7"/>
    <line x1="455" y1="170" x2="392" y2="206" stroke="#a259f7" stroke-width="2.5" stroke-linecap="round" opacity="0.9" filter="url(#fs6)"/>
    <line x1="455" y1="170" x2="392" y2="206" stroke="#ffffff" stroke-width="0.8" stroke-linecap="round" opacity="0.6"/>

    <!-- Pulse dots -->
    <circle cx="306" cy="218" r="5" fill="#5b8def" filter="url(#fs6)" opacity="0.8"/>
    <circle cx="306" cy="218" r="2.5" fill="#ffffff" opacity="0.95"/>
    <circle cx="362" cy="325" r="5" fill="#2ec4a0" filter="url(#fs6)" opacity="0.8"/>
    <circle cx="362" cy="325" r="2.5" fill="#ffffff" opacity="0.95"/>
    <circle cx="392" cy="206" r="4" fill="#a259f7" filter="url(#fs6)" opacity="0.8"/>
    <circle cx="392" cy="206" r="2" fill="#ffffff" opacity="0.9"/>

    <!-- Nodes — on halo rim -->
    <!-- Blue -->
    <circle cx="225" cy="170" r="7" fill="#5b8def" filter="url(#fs6)" opacity="0.85"/><circle cx="225" cy="170" r="4.5" fill="#5b8def"/><circle cx="225" cy="170" r="2" fill="#c8d9ff" opacity="0.9"/>
    <circle cx="260" cy="136" r="6.5" fill="#5b8def" filter="url(#fs6)" opacity="0.8"/><circle cx="260" cy="136" r="4" fill="#5b8def"/><circle cx="260" cy="136" r="1.8" fill="#c8d9ff" opacity="0.85"/>
    <circle cx="304" cy="115" r="6" fill="#5b8def" filter="url(#fs6)" opacity="0.75"/><circle cx="304" cy="115" r="3.5" fill="#5b8def"/><circle cx="304" cy="115" r="1.5" fill="#c8d9ff" opacity="0.8"/>
    <circle cx="208" cy="202" r="5.5" fill="#5b8def" filter="url(#fs6)" opacity="0.7"/><circle cx="208" cy="202" r="3" fill="#5b8def" opacity="0.9"/>
    <circle cx="359" cy="111" r="5.5" fill="#5b8def" filter="url(#fs6)" opacity="0.65"/><circle cx="359" cy="111" r="3" fill="#5b8def" opacity="0.85"/>
    <!-- Purple -->
    <circle cx="455" cy="170" r="7" fill="#a259f7" filter="url(#fs6)" opacity="0.85"/><circle cx="455" cy="170" r="4.5" fill="#a259f7"/><circle cx="455" cy="170" r="2" fill="#dfc0ff" opacity="0.9"/>
    <circle cx="420" cy="136" r="6.5" fill="#a259f7" filter="url(#fs6)" opacity="0.8"/><circle cx="420" cy="136" r="4" fill="#a259f7"/><circle cx="420" cy="136" r="1.8" fill="#dfc0ff" opacity="0.85"/>
    <circle cx="376" cy="115" r="6" fill="#a259f7" filter="url(#fs6)" opacity="0.75"/><circle cx="376" cy="115" r="3.5" fill="#a259f7"/><circle cx="376" cy="115" r="1.5" fill="#dfc0ff" opacity="0.8"/>
    <circle cx="475" cy="214" r="5.5" fill="#a259f7" filter="url(#fs6)" opacity="0.7"/><circle cx="475" cy="214" r="3" fill="#a259f7" opacity="0.9"/>
    <circle cx="472" cy="298" r="5.5" fill="#a259f7" filter="url(#fs6)" opacity="0.65"/><circle cx="472" cy="298" r="3" fill="#a259f7" opacity="0.85"/>
    <!-- Teal -->
    <circle cx="376" cy="385" r="7" fill="#2ec4a0" filter="url(#fs6)" opacity="0.85"/><circle cx="376" cy="385" r="4.5" fill="#2ec4a0"/><circle cx="376" cy="385" r="2" fill="#aff0e0" opacity="0.9"/>
    <circle cx="316" cy="388" r="6.5" fill="#2ec4a0" filter="url(#fs6)" opacity="0.8"/><circle cx="316" cy="388" r="4" fill="#2ec4a0"/><circle cx="316" cy="388" r="1.8" fill="#aff0e0" opacity="0.85"/>
    <circle cx="270" cy="371" r="6" fill="#2ec4a0" filter="url(#fs6)" opacity="0.75"/><circle cx="270" cy="371" r="3.5" fill="#2ec4a0"/><circle cx="270" cy="371" r="1.5" fill="#aff0e0" opacity="0.8"/>
    <circle cx="420" cy="365" r="5.5" fill="#2ec4a0" filter="url(#fs6)" opacity="0.7"/><circle cx="420" cy="365" r="3" fill="#2ec4a0" opacity="0.9"/>
    <circle cx="233" cy="340" r="5.5" fill="#2ec4a0" filter="url(#fs6)" opacity="0.65"/><circle cx="233" cy="340" r="3" fill="#2ec4a0" opacity="0.85"/>

    <!-- Hub -->
    <circle cx="340" cy="250" r="60" fill="url(#hubglow6)" filter="url(#fhub6)" opacity="0.5"/>
    <circle cx="340" cy="250" r="22" fill="#0a0c14" stroke="#ffffff" stroke-width="0.5" stroke-opacity="0.2"/>
    <path d="M340,250 L340,228 A22,22 0 0,1 359.1,261 Z" fill="#5b8def"/>
    <path d="M340,250 L359.1,261 A22,22 0 0,1 320.9,261 Z" fill="#2ec4a0"/>
    <path d="M340,250 L320.9,261 A22,22 0 0,1 340,228 Z" fill="#a259f7"/>
    <circle cx="340" cy="250" r="22" fill="none" stroke="#ffffff" stroke-width="0.7" stroke-opacity="0.28"/>
    <circle cx="340" cy="250" r="28" fill="none" stroke="#ffffff" stroke-width="0.4" stroke-opacity="0.1"/>
    <circle cx="340" cy="250" r="6" fill="#080a0f"/>
    <circle cx="340" cy="250" r="3.5" fill="#ffffff" opacity="0.92"/>
  </g>

  <rect x="140" y="20" width="400" height="400" rx="64" fill="none" stroke="#ffffff" stroke-width="0.5" stroke-opacity="0.08"/>
  <text x="340" y="462" text-anchor="middle" font-family="'Courier New', monospace" font-weight="500" font-size="42" fill="#1a1a1a" letter-spacing="-1">syn<tspan fill="#5b8def">l</tspan><tspan fill="#a259f7">y</tspan><tspan fill="#2ec4a0">n</tspan><tspan fill="#1a1a1a">k</tspan></text>
  <text x="340" y="486" text-anchor="middle" font-family="Arial, sans-serif" font-size="11" fill="#aaa" letter-spacing="2.5">synaptic link for ai dev</text>
</svg>
