<svg width="295" height="80" viewBox="0 0 295 80" role="img" xmlns="http://www.w3.org/2000/svg">
  <title>synlynk — keep your AI tools in sync</title>

  <!-- Icon mark (64×64, scaled from 180×180 natural size) -->
  <g transform="translate(40,40) scale(0.356)">
    <rect x="-90" y="-90" width="180" height="180" rx="36" fill="#0E0E0F" stroke="#888" stroke-width="6"/>
    <rect x="-90" y="-90" width="180" height="32" rx="36" fill="#1A1A1C"/>
    <rect x="-90" y="-72" width="180" height="14" fill="#1A1A1C"/>
    <circle cx="-62" cy="-74" r="5" fill="#FF5F57"/>
    <circle cx="-46" cy="-74" r="5" fill="#FEBC2E"/>
    <circle cx="-30" cy="-74" r="5" fill="#28C840"/>
    <text x="-72" y="62" font-family="'Courier New', monospace" font-size="11" fill="#2EC4A0" opacity="0.7">&#9654;</text>
    <rect x="-57" y="51" width="2" height="14" rx="1" fill="#A259F7" opacity="0.8"/>
    <path d="M 6 -46 C 6 -46 -28 -46 -28 -22 C -28 2 14 2 14 26" fill="none" stroke="#5B8DEF" stroke-width="11" stroke-linecap="round"/>
    <path d="M 14 26 C 14 26 46 26 46 2 C 46 -22 6 -22 6 -46" fill="none" stroke="#A259F7" stroke-width="11" stroke-linecap="round"/>
    <path d="M 14 26 L 14 50" fill="none" stroke="#2EC4A0" stroke-width="11" stroke-linecap="round"/>
    <circle cx="6" cy="-46" r="8" fill="#5B8DEF"/>
    <circle cx="14" cy="50" r="8" fill="#2EC4A0"/>
  </g>

  <!-- Wordmark -->
  <text x="84" y="44" font-family="'Courier New', monospace" font-weight="500" font-size="34" fill="#1a1a1a" letter-spacing="-1">syn<tspan fill="#5B8DEF">l</tspan><tspan fill="#A259F7">y</tspan><tspan fill="#2EC4A0">n</tspan><tspan fill="#1a1a1a">k</tspan></text>
  <text x="86" y="62" font-family="Arial, sans-serif" font-size="10" fill="#aaa" letter-spacing="2">synaptic link for ai dev</text>
</svg>
